<svg xmlns="http://www.w3.org/2000/svg" viewBox="0 0 55 32"><path fill="#173d33" style="fill: var(--color1, #173d33)" d="M37.919 22.773c-0.115-0.273-9.583-18.774-9.738-19.029-0.327-0.772-0.812-1.47-1.425-2.049s-1.34-1.028-2.136-1.317-1.644-0.414-2.492-0.366c-0.847 0.048-1.675 0.268-2.433 0.646s-1.427 0.906-1.968 1.55c-0.541 0.645-0.942 1.392-1.177 2.197s-0.299 1.647-0.189 2.477c0.11 0.83 0.393 1.628 0.83 2.345 0.115 0.273 9.177 17.981 9.332 18.236 0.116 0.274 0.251 0.539 0.406 0.793 0.327 0.772 0.812 1.47 1.425 2.049s1.34 1.028 2.136 1.317 1.644 0.414 2.492 0.366c0.847-0.048 1.675-0.268 2.433-0.646s1.427-0.906 1.968-1.55c0.541-0.645 0.942-1.393 1.177-2.197s0.299-1.647 0.189-2.477c-0.11-0.83-0.393-1.628-0.83-2.345z"></path>
<path fill="#97d28b" style="fill: var(--color2, #97d28b)" d="M26.985 10.254c0.58-0.61 1.027-1.331 1.312-2.119s0.402-1.625 0.345-2.46c-0.058-0.835-0.289-1.648-0.68-2.391s-0.933-1.397-1.592-1.924c-0.659-0.527-1.421-0.914-2.239-1.137s-1.673-0.278-2.513-0.161c-0.84 0.117-1.646 0.404-2.369 0.842s-1.346 1.019-1.831 1.705c-0.204 0.214-15.577 18.897-15.748 19.139-0.58 0.61-1.027 1.331-1.312 2.119s-0.403 1.625-0.345 2.46c0.058 0.835 0.289 1.649 0.68 2.391s0.933 1.398 1.592 1.924c0.659 0.527 1.421 0.914 2.239 1.137s1.673 0.278 2.513 0.161c0.84-0.117 1.646-0.404 2.369-0.842s1.346-1.019 1.831-1.705c0.204-0.214 15.577-18.897 15.748-19.138z"></path>
<path fill="#97d28b" style="fill: var(--color2, #97d28b)" d="M53.439 10.254c0.58-0.61 1.027-1.331 1.312-2.119s0.403-1.625 0.345-2.46c-0.058-0.835-0.289-1.649-0.68-2.391s-0.933-1.397-1.592-1.924c-0.659-0.527-1.421-0.914-2.239-1.137s-1.673-0.278-2.513-0.161c-0.84 0.117-1.646 0.404-2.369 0.842s-1.346 1.019-1.831 1.705c-0.204 0.214-15.577 18.897-15.748 19.139-0.58 0.61-1.027 1.331-1.312 2.119s-0.403 1.625-0.345 2.46c0.058 0.835 0.289 1.649 0.68 2.391s0.933 1.398 1.592 1.924c0.659 0.527 1.421 0.914 2.239 1.137s1.673 0.278 2.513 0.161c0.84-0.117 1.646-0.404 2.369-0.842s1.346-1.019 1.831-1.705c0.204-0.214 15.577-18.897 15.748-19.138z"></path></svg>

